<svg width="502" height="170" viewBox="0 0 502 170" fill="none" xmlns="http://www.w3.org/2000/svg">
<g clip-path="url(#clip0_45_13)">
<path d="M60.569 114.474C60.1869 114.499 59.8216 114.64 59.5221 114.878C59.2226 115.117 59.0033 115.441 58.8937 115.808C58.784 116.175 58.7893 116.567 58.9088 116.93C59.0284 117.294 59.2564 117.613 59.5622 117.843C74.5618 129.247 96.0174 129.209 111.045 116.599C114.237 113.923 117.004 110.776 119.25 107.267C119.458 106.945 119.562 106.566 119.549 106.182C119.535 105.799 119.403 105.428 119.172 105.122C118.941 104.815 118.622 104.587 118.257 104.467C117.892 104.348 117.499 104.344 117.132 104.455C107.913 107.136 98.5543 109.309 89.0976 110.964C79.6589 112.651 70.1352 113.823 60.569 114.474ZM139.612 64.3308C138.019 63.9602 136.253 63.6493 134.332 63.3981C133.701 63.312 133.058 63.3899 132.466 63.6242C131.874 63.8585 131.352 64.2414 130.95 64.7359C130.549 65.2304 130.281 65.82 130.174 66.4478C130.066 67.0756 130.122 67.7205 130.336 68.3205C130.36 68.3492 130.363 68.3927 130.377 68.4305C130.606 69.0669 131.005 69.6282 131.532 70.0531C132.058 70.4779 132.691 70.7499 133.362 70.8393C141.211 71.902 143.907 73.7732 144.167 74.4265C144.144 75.1282 142.144 78.2322 133.195 82.5532C131.913 83.172 130.483 83.8154 128.904 84.4836C127.886 84.9136 126.835 85.3373 125.752 85.7549C125.801 83.1298 125.601 80.5059 125.154 77.9187C125.141 77.841 125.13 77.7618 125.115 77.6823C123.85 70.6077 120.751 63.9885 116.129 58.485C115.174 57.3449 114.159 56.2565 113.087 55.2243C98.0861 40.8359 74.2816 39.7514 58.0151 53.4006C51.1099 59.1881 46.2977 67.0841 44.3188 75.8739C43.1165 81.198 42.9743 86.7067 43.9003 92.0858C43.9152 92.162 43.9266 92.2411 43.9398 92.3188C44.4019 94.9016 45.1101 97.4341 46.0546 99.882C44.8964 99.8605 43.7651 99.8236 42.6606 99.7713C40.9396 99.6857 39.3838 99.5745 37.9624 99.4302C28.0946 98.4521 25.1501 96.2264 24.8892 95.5764C24.9123 94.8747 26.795 92.1813 33.8159 88.4868C34.4174 88.1724 34.921 87.699 35.2719 87.118C35.6228 86.5371 35.8076 85.871 35.806 85.1923L35.8044 85.0591C35.8018 84.4269 35.6368 83.806 35.3252 83.2559C35.0136 82.7058 34.5658 82.2451 34.0249 81.9178C33.484 81.5906 32.8681 81.4078 32.2362 81.3871C31.6044 81.3664 30.9778 81.5084 30.4166 81.7995C28.7389 82.6629 27.1062 83.6112 25.5249 84.6405C19.4776 88.6348 16.7785 92.7507 17.5037 96.8783C17.7626 98.3683 18.6369 100.544 21.324 102.423C25.3102 105.216 32.4136 106.702 41.119 107.199C43.8933 107.359 46.8277 107.418 49.8798 107.387C52.098 107.361 54.3898 107.292 56.7151 107.183C58.2645 107.107 59.8337 107.014 61.4226 106.904C63.0115 106.795 64.6025 106.661 66.1956 106.503C73.4108 105.837 80.779 104.828 87.7918 103.585C90.3378 103.133 92.8553 102.653 95.3443 102.143C97.8333 101.633 100.275 101.095 102.669 100.528C108.258 99.2036 113.604 97.7532 118.568 96.1912C120.697 95.5224 122.752 94.8343 124.733 94.127C127.534 93.1293 130.181 92.0982 132.639 91.0389L132.886 90.9325C138.66 88.4314 143.161 85.8873 146.271 83.3728L146.583 83.1107C150.469 79.8506 152.14 76.4965 151.545 73.1339C150.824 68.96 146.806 65.9983 139.612 64.3308Z" fill="url(#paint0_linear_45_13)"/>
</g>
<path d="M174.916 92.72V91.056H184.772C185.988 91.056 186.596 90.4587 186.596 89.264V86.736C186.596 85.6907 186.137 85.0827 185.22 84.912L178.532 83.536C176.121 83.0667 174.916 81.456 174.916 78.704V76.976C174.916 73.6053 176.59 71.92 179.94 71.92H187.556L189.188 73.2V74.864H179.972C178.756 74.864 178.148 75.4613 178.148 76.656V78.832C178.148 79.8773 178.606 80.4853 179.524 80.656L186.244 81.968C188.633 82.48 189.828 84.1013 189.828 86.832V88.944C189.828 92.3147 188.153 94 184.804 94H176.548L174.916 92.72ZM193.925 89.072V82.192C193.925 78.928 195.557 77.296 198.821 77.296H203.301C206.565 77.296 208.197 78.928 208.197 82.192V89.072C208.197 92.3573 206.565 94 203.301 94H198.821C195.557 94 193.925 92.3573 193.925 89.072ZM197.029 89.392C197.029 90.6507 197.658 91.28 198.917 91.28H203.237C204.474 91.28 205.093 90.6507 205.093 89.392V81.872C205.093 80.6347 204.474 80.016 203.237 80.016H198.917C197.658 80.016 197.029 80.6347 197.029 81.872V89.392ZM212.803 88.976V70.32H215.907V89.296C215.907 90.7253 216.632 91.4933 218.083 91.6V94.288C214.563 94.288 212.803 92.5173 212.803 88.976ZM225.775 94C222.49 94 220.847 92.368 220.847 89.104C220.847 85.84 222.49 84.208 225.775 84.208H231.183V81.872C231.183 80.6347 230.565 80.016 229.327 80.016H222.479V78.384L223.951 77.296H229.391C232.655 77.296 234.287 78.928 234.287 82.192V94H225.775ZM223.951 89.392C223.951 90.6507 224.581 91.28 225.839 91.28H231.183V86.64H225.839C224.581 86.64 223.951 87.2693 223.951 88.528V89.392ZM239.022 94V79.28C239.768 77.9573 241.187 77.296 243.278 77.296H246.574L248.046 78.384V80.016H243.886C243.054 80.016 242.467 80.2293 242.126 80.656V94H239.022ZM258.416 92.72V91.056H268.272C269.488 91.056 270.096 90.4587 270.096 89.264V86.736C270.096 85.6907 269.637 85.0827 268.72 84.912L262.032 83.536C259.621 83.0667 258.416 81.456 258.416 78.704V76.976C258.416 73.6053 260.09 71.92 263.44 71.92H271.056L272.688 73.2V74.864H263.472C262.256 74.864 261.648 75.4613 261.648 76.656V78.832C261.648 79.8773 262.106 80.4853 263.024 80.656L269.744 81.968C272.133 82.48 273.328 84.1013 273.328 86.832V88.944C273.328 92.3147 271.653 94 268.304 94H260.048L258.416 92.72ZM275.793 77.808L276.145 77.296H278.833L283.377 91.28H283.953L288.529 77.296H291.185L291.537 77.808L283.953 100.4H281.265L280.945 99.888L283.025 94H281.265L275.793 77.808ZM294.01 92.912V91.28H301.402C302.66 91.28 303.29 90.64 303.29 89.36C303.29 88.0373 302.778 87.2907 301.754 87.12L298.074 86.512C295.364 86.0427 294.01 84.5493 294.01 82.032C294.01 78.8747 295.652 77.296 298.938 77.296H304.154L305.626 78.384V80.016H299.002C297.722 80.016 297.082 80.656 297.082 81.936C297.082 83.1307 297.615 83.824 298.682 84.016L302.394 84.624C305.06 85.072 306.394 86.608 306.394 89.232C306.394 92.4107 304.74 94 301.434 94H295.482L294.01 92.912ZM310.584 89.072V71.92H313.688V77.296H319.608V80.016H313.688V89.392C313.688 90.6507 314.317 91.28 315.576 91.28H319.928V92.912L318.456 94H315.48C312.216 94 310.584 92.3573 310.584 89.072ZM323.331 89.072V82.192C323.331 78.928 324.963 77.296 328.227 77.296H332.387C335.651 77.296 337.283 78.928 337.283 82.192V86.8H326.435V89.392C326.435 90.6507 327.064 91.28 328.323 91.28H336.643V92.912L335.203 94H328.227C324.963 94 323.331 92.3573 323.331 89.072ZM326.435 84.368H334.179V81.872C334.179 80.6347 333.56 80.016 332.323 80.016H328.323C327.064 80.016 326.435 80.6347 326.435 81.872V84.368ZM342.025 94V77.296H361.001C364.265 77.296 365.897 78.928 365.897 82.192V94H362.793V81.872C362.793 80.6347 362.174 80.016 360.937 80.016H355.529V94H352.393V80.016H345.129V94H342.025ZM378.782 94V71.92H393.374V74.864H382.014V81.008H392.414V83.952H382.014V91.056H393.374V94H378.782ZM395.894 93.456L401.686 85.488L396.118 77.84L396.374 77.296H399.254L403.446 83.216L407.67 77.296H410.518L410.806 77.84L405.238 85.488L410.998 93.456L410.742 94H407.862L403.446 87.792L399.03 94H396.182L395.894 93.456ZM414.431 100.4V77.296H423.487C426.751 77.296 428.383 78.928 428.383 82.192V89.072C428.383 92.3573 426.751 94 423.487 94H417.535V100.4H414.431ZM417.535 91.28H423.423C424.66 91.28 425.279 90.6507 425.279 89.392V81.872C425.279 80.6347 424.66 80.016 423.423 80.016H417.535V91.28ZM432.99 88.976V70.32H436.094V89.296C436.094 90.7253 436.82 91.4933 438.27 91.6V94.288C434.75 94.288 432.99 92.5173 432.99 88.976ZM441.675 89.072V82.192C441.675 78.928 443.307 77.296 446.571 77.296H451.051C454.315 77.296 455.947 78.928 455.947 82.192V89.072C455.947 92.3573 454.315 94 451.051 94H446.571C443.307 94 441.675 92.3573 441.675 89.072ZM444.779 89.392C444.779 90.6507 445.408 91.28 446.667 91.28H450.987C452.224 91.28 452.843 90.6507 452.843 89.392V81.872C452.843 80.6347 452.224 80.016 450.987 80.016H446.667C445.408 80.016 444.779 80.6347 444.779 81.872V89.392ZM460.553 94V79.28C461.299 77.9573 462.718 77.296 464.809 77.296H468.105L469.577 78.384V80.016H465.417C464.585 80.016 463.998 80.2293 463.657 80.656V94H460.553ZM472.644 89.072V82.192C472.644 78.928 474.276 77.296 477.54 77.296H481.7C484.964 77.296 486.596 78.928 486.596 82.192V86.8H475.748V89.392C475.748 90.6507 476.377 91.28 477.636 91.28H485.956V92.912L484.516 94H477.54C474.276 94 472.644 92.3573 472.644 89.072ZM475.748 84.368H483.492V81.872C483.492 80.6347 482.873 80.016 481.636 80.016H477.636C476.377 80.016 475.748 80.6347 475.748 81.872V84.368ZM491.209 94V79.28C491.956 77.9573 493.374 77.296 495.465 77.296H498.761L500.233 78.384V80.016H496.073C495.241 80.016 494.654 80.2293 494.313 80.656V94H491.209Z" fill="#F8C7C7"/>
<defs>
<linearGradient id="paint0_linear_45_13" x1="58.0133" y1="53.4021" x2="111.043" y2="116.601" gradientUnits="userSpaceOnUse">
<stop stop-color="#F8C7C7"/>
<stop offset="0.671875" stop-color="#AA2B2B"/>
<stop offset="0.822917" stop-color="#8D2727" stop-opacity="0.7"/>
<stop offset="0.973958" stop-color="#792626" stop-opacity="0.4"/>
</linearGradient>
<clipPath id="clip0_45_13">
<rect width="120" height="120" fill="white" transform="translate(0 77.6046) rotate(-40)"/>
</clipPath>
</defs>
</svg>
